<?xml version="1.0" standalone="no"?>
<!DOCTYPE svg PUBLIC "-//W3C//DTD SVG 20010904//EN"
 "http://www.w3.org/TR/2001/REC-SVG-20010904/DTD/svg10.dtd">
<svg version="1.0" xmlns="http://www.w3.org/2000/svg"
 width="766.000000pt" height="728.000000pt" viewBox="0 0 766.000000 728.000000"
 preserveAspectRatio="xMidYMid meet">

<g transform="translate(0.000000,728.000000) scale(0.100000,-0.100000)"
fill="#000000" stroke="none">
<path d="M90 3635 l0 -3595 505 0 c498 0 505 0 505 -20 0 -19 7 -20 104 -20
96 0 105 2 111 20 6 20 15 20 2395 20 2380 0 2389 0 2395 -20 6 -18 15 -20
112 -20 100 0 105 1 100 20 -5 20 0 20 649 20 l654 0 0 3595 0 3595 -3765 0
-3765 0 0 -3595z m7500 0 l0 -3565 -642 0 -643 0 -49 203 c-26 111 -71 295
-99 409 l-51 208 -2397 0 -2397 0 -82 -337 c-45 -186 -90 -369 -99 -408 l-17
-70 -497 -3 -497 -2 0 3565 0 3565 3735 0 3735 0 0 -3565z m-1806 -2979 c58
-18 109 -55 142 -106 14 -21 56 -137 93 -257 l68 -218 -2375 -3 c-1306 -1
-2377 -1 -2378 1 -5 5 132 431 149 463 22 43 91 100 141 118 61 21 4088 23
4160 2z"/>
<path d="M1205 6636 c-97 -23 -168 -53 -241 -105 -121 -84 -206 -198 -251
-335 -22 -68 -27 -100 -27 -196 -1 -101 2 -126 28 -204 84 -257 309 -433 577
-452 388 -27 722 307 695 695 -24 333 -292 594 -625 607 -60 2 -118 -1 -156
-10z m145 -126 c0 -47 -3 -60 -15 -60 -12 0 -15 13 -15 60 0 47 3 60 15 60 12
0 15 -13 15 -60z m-256 -64 c31 -53 31 -56 8 -56 -15 0 -62 70 -62 93 0 22 32
1 54 -37z m536 34 c0 -20 -51 -90 -65 -90 -20 0 -19 6 10 57 24 39 55 58 55
33z m-68 -311 c-123 -121 -161 -163 -153 -173 9 -11 4 -26 -25 -64 -1 -2 -12
2 -24 8 -18 9 -25 8 -42 -6 -19 -18 -20 -18 -38 6 -11 14 -17 32 -15 40 4 11
-27 35 -100 80 -58 36 -105 70 -105 75 0 39 19 35 144 -30 l126 -67 43 35 c23
19 107 89 186 156 104 87 148 118 155 110 8 -7 -36 -56 -152 -170z m-664 99
c25 -14 42 -30 42 -40 0 -10 -3 -18 -6 -18 -17 0 -94 54 -94 66 0 19 8 18 58
-8z m932 8 c0 -12 -77 -66 -94 -66 -3 0 -6 8 -6 18 0 9 17 27 38 39 43 26 62
29 62 9z m-950 -281 c0 -12 -13 -15 -60 -15 -47 0 -60 3 -60 15 0 12 13 15 60
15 47 0 60 -3 60 -15z m1030 0 c0 -12 -13 -15 -60 -15 -47 0 -60 3 -60 15 0
12 13 15 60 15 47 0 60 -3 60 -15z m-972 -232 c-3 -15 -71 -62 -90 -63 -23 0
-2 32 35 54 50 30 60 32 55 9z m848 -9 c38 -22 59 -54 37 -54 -23 0 -93 47
-93 62 0 23 3 23 56 -8z m-666 -161 c0 -16 -54 -93 -66 -93 -20 0 -17 16 12
65 16 29 30 42 40 38 8 -3 14 -7 14 -10z m485 -33 c29 -45 31 -60 10 -60 -12
0 -65 75 -65 93 0 21 33 1 55 -33z m-255 -80 c0 -47 -3 -60 -15 -60 -12 0 -15
13 -15 60 0 47 3 60 15 60 12 0 15 -13 15 -60z"/>
<path d="M1321 6006 c-9 -10 -8 -16 3 -25 10 -9 16 -8 25 3 9 10 8 16 -3 25
-10 9 -16 8 -25 -3z"/>
<path d="M3700 4995 l0 -1655 -903 0 c-863 0 -905 -1 -920 -18 -16 -17 -17
-95 -17 -920 0 -889 0 -902 20 -922 20 -20 33 -20 580 -20 373 0 560 -3 560
-10 0 -11 -38 -194 -46 -222 -4 -15 -17 -18 -70 -18 l-64 0 0 -40 0 -40 -651
0 c-622 0 -650 1 -630 18 19 15 26 44 51 217 16 110 30 205 30 212 0 6 -11 13
-25 15 l-26 3 27 53 c14 29 49 78 78 109 l51 56 -63 -5 -62 -6 22 31 c11 18
40 52 62 76 l41 43 -50 -5 c-27 -3 -60 -9 -72 -12 l-22 -7 19 48 c25 66 36
144 20 144 -19 0 -53 -20 -85 -51 l-30 -28 0 79 c0 123 -31 129 -95 17 l-28
-48 -6 38 c-11 61 -36 130 -52 143 -12 10 -18 3 -38 -41 -13 -30 -27 -74 -31
-99 l-7 -44 -18 34 c-10 19 -32 51 -48 70 -43 50 -57 32 -57 -70 l0 -79 -30
28 c-32 31 -66 51 -86 51 -16 0 -3 -93 22 -149 l19 -43 -23 7 c-12 3 -44 9
-72 12 l-50 5 36 -38 c20 -22 48 -56 64 -76 l27 -38 -63 7 -64 6 50 -55 c28
-30 63 -79 78 -109 l28 -54 -26 -3 c-16 -2 -25 -10 -25 -20 0 -9 13 -104 29
-210 21 -139 34 -199 47 -213 17 -19 14 -19 -144 -19 l-162 0 0 -75 0 -75
2910 0 2910 0 0 75 0 75 -150 0 c-143 0 -150 1 -150 20 0 20 -7 20 -354 20
-354 0 -355 0 -380 23 -38 34 -39 85 -1 122 l24 25 356 0 c350 0 355 0 355 20
0 21 -4 21 -366 18 l-366 -3 -34 -37 c-27 -30 -34 -46 -34 -79 0 -51 24 -94
64 -113 29 -14 12 -16 -209 -15 -208 0 -236 2 -210 13 17 7 39 23 49 35 l19
21 -86 0 c-48 0 -87 3 -87 8 1 19 30 42 54 42 69 0 116 55 116 135 0 54 -25
85 -69 85 -25 0 -30 4 -33 27 l-3 28 -215 0 -215 0 3 -70 c4 -80 25 -182 47
-225 l16 -30 -82 0 c-75 0 -80 -1 -68 -17 8 -9 32 -24 54 -34 39 -18 30 -19
-497 -19 l-538 0 0 40 0 40 -70 0 c-38 0 -70 2 -70 3 0 2 -11 55 -25 117 -14
62 -25 117 -25 122 0 4 254 8 564 8 l565 0 15 22 c14 19 16 77 16 425 l0 403
1150 0 1150 0 0 2170 0 2170 -1600 0 -1600 0 0 -1655z m1510 1570 l0 -55 -675
0 c-443 0 -675 -3 -675 -10 0 -5 -7 -10 -15 -10 -13 0 -15 -182 -15 -1575 l0
-1575 -50 0 -50 0 0 1640 0 1640 740 0 740 0 0 -55z m1660 -2085 l0 -2140
-815 0 -815 0 0 85 0 85 745 0 c490 0 745 3 745 10 0 6 7 10 15 10 13 0 15
226 15 1976 0 1699 -2 1977 -14 1990 -12 12 -127 14 -760 14 l-746 0 0 55 0
55 815 0 815 0 0 -2140z m-1660 30 l0 -1970 -305 0 -305 0 0 382 c0 341 -2
383 -17 400 -15 17 -40 18 -370 18 l-353 0 0 1570 0 1570 675 0 675 0 0 -1970z
m1520 0 l0 -1970 -745 0 -745 0 0 1970 0 1970 745 0 745 0 0 -1970z m-3480
-1235 c15 -18 5 -35 -21 -35 -12 0 -19 7 -19 18 0 33 20 42 40 17z m-305 -125
c-718 -5 -762 -6 -798 -24 -50 -24 -93 -78 -106 -132 -16 -61 -15 -909 1 -972
15 -62 78 -125 140 -140 67 -17 2029 -17 2096 0 62 15 125 78 140 140 7 26 12
101 12 167 0 74 4 121 10 121 6 0 10 -95 10 -265 l0 -265 -1215 0 -1215 0 0
690 0 690 843 -2 842 -3 -760 -5z m863 3 c-16 -2 -40 -2 -55 0 -16 2 -3 4 27
4 30 0 43 -2 28 -4z m642 -303 c0 -200 -4 -310 -10 -310 -6 0 -10 75 -10 206
0 226 -7 274 -51 326 -53 66 -79 72 -314 79 l-210 5 298 2 297 2 0 -310z
m-1973 27 c31 -48 40 -107 17 -107 -8 0 -19 11 -24 25 -6 15 -17 25 -30 25
-13 0 -24 -10 -30 -25 -9 -25 -24 -32 -34 -17 -5 9 32 122 46 139 14 17 24 9
55 -40z m131 37 c24 -16 29 -53 11 -71 -9 -9 -8 -18 5 -37 9 -14 16 -28 16
-31 0 -13 -28 -3 -45 15 -10 11 -24 20 -32 20 -7 0 -13 -9 -13 -20 0 -11 -7
-20 -15 -20 -12 0 -15 15 -15 74 0 50 4 76 13 79 24 10 53 7 75 -9z m248 -5
c3 -5 -2 -12 -10 -15 -11 -4 -16 -19 -16 -49 0 -30 5 -45 16 -49 25 -10 6 -26
-32 -26 -24 0 -34 5 -34 15 0 8 5 15 10 15 15 0 12 87 -2 92 -7 3 -24 2 -38
-2 -23 -5 -25 -11 -28 -63 -2 -42 -7 -57 -17 -57 -12 0 -15 14 -15 60 0 53 -2
60 -20 60 -11 0 -20 7 -20 15 0 12 18 14 100 14 55 -1 103 -5 106 -10z m132
-13 c3 -15 0 -18 -19 -13 -29 8 -59 -17 -59 -50 0 -27 26 -41 43 -24 16 16 37
14 37 -4 0 -37 -80 -47 -104 -13 -24 34 -19 66 14 99 34 35 82 38 88 5z m42
-35 c0 -60 0 -60 32 -63 55 -5 46 -28 -11 -28 l-51 0 0 75 c0 60 3 75 15 75
12 0 15 -13 15 -59z m185 44 c0 -5 -15 -11 -32 -13 -39 -4 -45 -29 -8 -34 14
-2 26 -7 26 -13 0 -5 -12 -11 -26 -13 -14 -2 -25 -10 -25 -18 0 -11 8 -14 28
-12 19 2 27 -2 27 -12 0 -10 -13 -16 -42 -18 l-41 -3 -4 68 c-2 37 -2 72 0 76
5 12 97 4 97 -8z m1235 -480 c0 -50 -4 -85 -10 -85 -6 0 -10 35 -10 85 0 50 4
85 10 85 6 0 10 -35 10 -85z m760 0 l0 -85 -305 0 -305 0 0 85 0 85 305 0 305
0 0 -85z m-2370 -155 c11 -11 20 -29 20 -40 0 -11 -9 -29 -20 -40 -11 -11 -29
-20 -40 -20 -13 0 -20 -7 -20 -19 0 -23 -22 -40 -28 -23 -2 7 -13 10 -28 6
-20 -5 -24 -3 -24 17 0 13 -5 31 -10 39 -8 13 -10 13 -10 -1 0 -9 -8 -27 -19
-40 l-18 -23 -21 39 c-16 31 -21 35 -22 18 0 -33 -11 -53 -27 -53 -11 0 -13
12 -8 63 11 103 22 112 55 47 23 -45 35 -45 45 1 6 27 29 48 40 37 3 -3 11
-33 19 -69 l14 -64 1 63 c1 55 4 64 24 72 35 14 56 11 77 -10z m-292 -7 c2 -9
-8 -13 -32 -13 -25 0 -36 -4 -36 -15 0 -10 10 -15 30 -15 38 0 41 -27 3 -32
-42 -5 -41 -28 2 -28 25 0 35 -4 33 -12 -3 -8 -22 -13 -49 -13 l-44 0 -3 58
c-3 53 -5 57 -27 57 -22 0 -24 -4 -27 -57 -2 -46 -7 -59 -20 -61 -16 -3 -18 5
-18 57 0 54 -2 61 -20 61 -11 0 -20 7 -20 15 0 12 19 14 112 12 78 -1 113 -6
116 -14z m350 -46 c3 -52 5 -57 27 -57 13 0 29 -2 37 -5 9 -3 19 15 33 58 26
77 43 83 82 24 33 -48 42 -107 16 -107 -8 0 -17 9 -20 20 -4 14 -14 20 -33 20
-19 0 -29 -6 -33 -20 -4 -17 -14 -20 -71 -20 l-66 0 0 76 c0 56 3 75 13 72 7
-3 13 -27 15 -61z m437 48 c0 -5 -15 -11 -32 -13 -40 -4 -44 -29 -6 -34 36 -4
41 -26 7 -30 -40 -5 -42 -26 -2 -30 50 -5 40 -23 -14 -26 l-48 -3 0 60 0 61
-30 0 -30 0 0 -60 c0 -46 -3 -60 -15 -60 -10 0 -15 15 -17 58 -3 50 -6 57 -25
60 -23 3 -29 13 -17 25 11 11 229 3 229 -8z m1855 -840 c18 -22 6 -92 -21
-121 -25 -27 -69 -33 -69 -9 0 15 18 111 25 133 6 17 50 15 65 -3z"/>
<path d="M6275 3963 c-49 -90 -76 -117 -162 -165 -40 -22 -73 -43 -73 -46 0
-4 36 -27 80 -51 87 -48 111 -73 159 -168 17 -35 35 -63 39 -63 4 0 22 29 39
64 44 90 82 129 168 173 41 21 75 41 75 45 0 4 -28 22 -62 39 -96 48 -121 72
-169 159 -24 44 -47 80 -51 80 -3 0 -23 -30 -43 -67z"/>
<path d="M5846 3171 c-37 -72 -72 -109 -137 -142 -33 -16 -59 -34 -59 -39 0
-5 24 -21 53 -36 70 -35 103 -68 138 -136 16 -32 33 -58 37 -58 4 0 20 25 36
56 37 71 69 103 140 140 31 16 56 31 56 34 0 3 -25 19 -56 35 -65 35 -115 87
-146 150 -12 25 -26 45 -30 45 -4 0 -19 -22 -32 -49z"/>
<path d="M2430 2860 c0 -5 5 -10 10 -10 6 0 10 5 10 10 0 6 -4 10 -10 10 -5 0
-10 -4 -10 -10z"/>
<path d="M2557 2893 c-10 -10 -8 -43 2 -43 20 0 41 13 41 25 0 7 -7 16 -16 19
-19 7 -19 7 -27 -1z"/>
<path d="M2780 2225 c0 -26 18 -33 37 -14 16 16 5 39 -18 39 -14 0 -19 -7 -19
-25z"/>
<path d="M3030 2220 c0 -5 5 -10 10 -10 6 0 10 5 10 10 0 6 -4 10 -10 10 -5 0
-10 -4 -10 -10z"/>
<path d="M2581 5752 c-33 -66 -79 -110 -151 -147 -28 -14 -50 -27 -50 -30 0
-3 24 -17 53 -31 85 -43 102 -60 141 -134 20 -38 39 -70 41 -70 3 0 16 22 30
50 36 71 76 112 145 149 33 18 60 34 60 36 0 2 -26 18 -57 35 -78 43 -98 64
-140 138 -19 34 -37 62 -39 62 -2 0 -17 -26 -33 -58z"/>
<path d="M3090 5280 c-43 -84 -89 -132 -170 -174 -39 -21 -70 -39 -70 -41 0
-2 33 -22 74 -45 85 -46 124 -86 166 -170 17 -33 34 -60 38 -60 4 0 23 30 42
66 46 86 82 122 169 168 39 20 71 39 71 41 0 2 -37 23 -81 46 -87 45 -119 79
-167 177 -14 28 -30 52 -34 52 -4 0 -21 -27 -38 -60z"/>
<path d="M5584 1911 c-44 -27 -64 -59 -64 -104 0 -52 22 -91 64 -111 29 -14
81 -16 385 -16 305 0 351 2 351 15 0 13 -46 15 -351 15 -232 0 -357 4 -371 11
-11 6 -26 26 -34 45 -12 29 -12 39 0 68 8 19 23 39 34 45 14 7 139 11 371 11
344 0 351 0 351 20 0 20 -7 20 -352 20 -330 0 -355 -1 -384 -19z"/>
<path d="M5640 1850 c0 -6 115 -10 325 -10 210 0 325 4 325 10 0 6 -115 10
-325 10 -210 0 -325 -4 -325 -10z"/>
<path d="M5640 1800 c0 -6 113 -10 320 -10 207 0 320 4 320 10 0 6 -113 10
-320 10 -207 0 -320 -4 -320 -10z"/>
<path d="M5640 1750 c0 -6 115 -10 325 -10 210 0 325 4 325 10 0 6 -115 10
-325 10 -210 0 -325 -4 -325 -10z"/>
<path d="M5456 1631 c-12 -13 -16 -39 -16 -104 0 -74 3 -90 20 -107 23 -23 50
-26 69 -7 11 10 14 10 18 0 4 -10 82 -13 344 -13 332 0 339 0 339 20 0 20 -7
20 -332 22 -183 1 -351 2 -373 3 l-40 0 0 85 0 85 40 0 c22 1 190 2 373 3 290
2 332 4 332 17 0 14 -46 15 -379 15 -349 -1 -380 -3 -395 -19z"/>
<path d="M5570 1580 c0 -6 115 -10 325 -10 210 0 325 4 325 10 0 6 -115 10
-325 10 -210 0 -325 -4 -325 -10z"/>
<path d="M5570 1530 c0 -6 113 -10 320 -10 207 0 320 4 320 10 0 6 -113 10
-320 10 -207 0 -320 -4 -320 -10z"/>
<path d="M5570 1480 c0 -6 115 -10 325 -10 210 0 325 4 325 10 0 6 -115 10
-325 10 -210 0 -325 -4 -325 -10z"/>
<path d="M5803 1303 c93 -2 241 -2 330 0 89 1 14 3 -168 3 -181 0 -254 -2
-162 -3z"/>
<path d="M5798 1253 c89 -2 235 -2 325 0 89 1 16 3 -163 3 -179 0 -252 -2
-162 -3z"/>
<path d="M5803 1203 c93 -2 241 -2 330 0 89 1 14 3 -168 3 -181 0 -254 -2
-162 -3z"/>
</g>
</svg>
