<?xml version="1.0" standalone="no"?>
<!DOCTYPE svg PUBLIC "-//W3C//DTD SVG 20010904//EN"
 "http://www.w3.org/TR/2001/REC-SVG-20010904/DTD/svg10.dtd">
<svg version="1.0" xmlns="http://www.w3.org/2000/svg"
 width="574.000000pt" height="435.000000pt" viewBox="0 0 574.000000 435.000000"
 preserveAspectRatio="xMidYMid meet">

<g transform="translate(0.000000,435.000000) scale(0.100000,-0.100000)"
fill="#000000" stroke="none">
<path d="M1082 3898 c-17 -17 -17 -1309 0 -1326 9 -9 116 -12 420 -12 224 0
408 -3 408 -7 -1 -5 -9 -46 -18 -93 l-18 -85 -47 -3 c-42 -3 -47 -6 -47 -28
l0 -24 280 0 280 0 0 24 c0 23 -5 25 -47 28 l-48 3 -17 75 c-9 41 -17 83 -17
93 -1 16 24 17 398 17 220 0 406 3 415 6 14 6 16 73 16 663 0 498 -3 660 -12
669 -17 17 -1929 17 -1946 0z m993 -48 c0 -22 -29 -18 -33 3 -3 14 1 18 15 15
10 -2 18 -10 18 -18z m482 -70 l373 0 0 -495 0 -495 -875 0 -875 0 0 493 c0
272 3 497 8 502 4 4 229 5 501 1 272 -3 662 -6 868 -6z"/>
<path d="M3350 3891 c-6 -13 -10 -236 -10 -656 0 -420 4 -643 10 -656 10 -18
26 -19 420 -19 226 0 410 -2 410 -4 0 -4 -6 -31 -35 -163 -5 -20 -12 -23 -50
-23 -41 0 -45 -2 -45 -25 l0 -25 280 0 280 0 0 24 c0 23 -5 25 -47 28 l-48 3
-12 49 c-7 27 -15 69 -19 93 l-6 43 404 0 c301 0 407 3 416 12 17 17 17 1309
0 1326 -9 9 -239 12 -975 12 -941 0 -963 0 -973 -19z m995 -41 c0 -22 -29 -18
-33 3 -3 14 1 18 15 15 10 -2 18 -10 18 -18z m487 -70 l378 0 0 -495 0 -495
-880 0 -880 0 0 493 c0 272 3 497 8 502 4 4 229 5 501 1 272 -3 665 -6 873 -6z"/>
<path d="M2060 1215 l0 -635 1280 0 1280 0 0 635 0 635 -1280 0 -1280 0 0
-635z m2108 537 c9 -7 12 -75 10 -308 l-3 -299 -127 -3 -128 -3 0 -63 c0 -36
-9 -92 -20 -128 -11 -34 -23 -84 -26 -109 -5 -40 -3 -50 16 -69 14 -14 25 -39
28 -65 l4 -42 -92 -6 c-51 -4 -131 -7 -177 -7 l-83 0 0 50 c0 37 4 52 16 57
26 10 6 64 -46 119 -39 42 -52 65 -73 135 -14 46 -27 93 -29 104 -3 19 -12 20
-158 23 l-155 2 -30 -102 c-26 -92 -35 -109 -82 -160 -55 -60 -70 -109 -38
-122 11 -4 15 -20 15 -57 l0 -52 -172 7 c-94 3 -172 7 -173 9 -1 1 0 23 3 50
3 32 9 47 18 47 23 0 17 96 -11 190 -14 46 -25 107 -25 136 l0 53 -67 3 -68 3
-3 294 c-2 208 1 298 9 307 10 12 149 14 833 14 451 0 827 -4 834 -8z"/>
<path d="M2966 1124 c-12 -30 -7 -84 8 -84 12 0 46 66 46 90 0 16 -47 11 -54
-6z"/>
<path d="M3530 1136 c0 -13 40 -95 49 -100 15 -10 25 38 14 71 -7 20 -17 29
-36 31 -15 2 -27 1 -27 -2z"/>
<path d="M4942 1678 c-24 -24 -13 -38 28 -38 26 0 40 5 40 13 0 18 -21 37 -40
37 -9 0 -21 -5 -28 -12z"/>
<path d="M5092 1678 c-24 -24 -13 -38 28 -38 26 0 40 5 40 13 0 18 -21 37 -40
37 -9 0 -21 -5 -28 -12z"/>
<path d="M5253 1684 c-7 -3 -13 -14 -13 -25 0 -15 7 -19 36 -19 31 0 35 3 32
23 -3 22 -29 32 -55 21z"/>
<path d="M1537 1662 c-20 -22 -22 -60 -5 -113 10 -36 14 -39 49 -39 21 0 41 5
44 11 4 6 9 36 12 68 4 45 2 61 -12 74 -22 22 -68 22 -88 -1z"/>
<path d="M4930 1580 l0 -40 40 0 40 0 0 40 0 40 -40 0 -40 0 0 -40z"/>
<path d="M5080 1580 l0 -40 40 0 40 0 0 40 0 40 -40 0 -40 0 0 -40z"/>
<path d="M5240 1580 c0 -39 1 -40 35 -40 34 0 35 1 35 40 0 39 -1 40 -35 40
-34 0 -35 -1 -35 -40z"/>
<path d="M4932 1298 l3 -223 35 0 35 0 3 223 2 222 -40 0 -40 0 2 -222z"/>
<path d="M5082 1298 l3 -223 35 0 35 0 3 223 2 222 -40 0 -40 0 2 -222z"/>
<path d="M5240 1295 l0 -225 35 0 35 0 0 225 0 225 -35 0 -35 0 0 -225z"/>
<path d="M1540 1030 l0 -450 40 0 40 0 0 450 0 450 -40 0 -39 0 -1 -450z"/>
<path d="M342 1248 c-15 -15 -16 -48 -2 -48 6 0 10 -9 10 -20 0 -11 -4 -20
-10 -20 -14 0 -12 -34 2 -48 10 -10 10 -17 0 -32 -15 -24 -16 -50 -2 -50 14 0
12 -34 -2 -48 -10 -10 -10 -17 0 -32 15 -24 16 -50 2 -50 -14 0 -13 -33 2 -48
9 -9 8 -17 -2 -37 -10 -20 -11 -28 -2 -37 15 -15 16 -48 2 -48 -14 0 -12 -34
2 -48 10 -10 10 -17 0 -32 -16 -26 -15 -38 2 -56 18 -17 38 -18 54 -2 10 10
17 10 32 0 11 -6 25 -12 31 -12 16 0 39 -26 39 -44 0 -9 -4 -16 -10 -16 -14 0
-13 -33 2 -48 9 -9 9 -17 -2 -36 -24 -46 10 -80 56 -56 19 11 27 11 36 2 16
-16 45 -15 51 1 3 9 10 9 30 -2 22 -12 31 -12 51 -2 19 10 27 10 44 0 17 -11
25 -11 48 1 21 12 28 12 31 3 3 -7 15 -13 28 -13 13 0 25 6 28 13 3 9 10 9 30
-2 23 -12 31 -12 54 0 20 11 27 11 30 2 3 -7 15 -13 28 -13 13 0 25 6 28 13 3
9 10 9 30 -2 23 -12 31 -12 52 -1 20 10 28 11 37 2 16 -16 36 -15 54 2 17 18
18 38 2 54 -10 10 -10 17 0 32 15 24 16 50 2 50 -5 0 -10 9 -10 20 0 11 5 20
10 20 14 0 13 26 -2 50 -10 15 -10 22 0 32 14 14 16 48 2 48 -14 0 -12 34 2
48 10 10 10 17 -1 34 -10 17 -11 25 0 44 10 19 10 29 0 48 -11 19 -10 27 0 44
11 17 11 24 1 34 -14 14 -16 48 -2 48 14 0 13 33 -2 48 -16 16 -55 15 -61 0
-3 -10 -9 -10 -26 0 -11 6 -27 12 -34 12 -21 0 -43 48 -29 62 16 16 15 45 0
51 -10 3 -10 9 1 30 25 47 -9 81 -56 56 -21 -11 -27 -11 -30 -1 -6 15 -45 16
-61 0 -9 -9 -15 -9 -24 0 -15 15 -50 16 -65 1 -8 -8 -17 -7 -32 3 -17 11 -25
11 -42 0 -15 -10 -24 -11 -32 -3 -6 6 -20 11 -32 11 -12 0 -26 -5 -32 -11 -8
-8 -17 -7 -32 3 -17 11 -25 11 -42 0 -15 -10 -24 -11 -32 -3 -14 14 -50 14
-64 0 -8 -8 -16 -7 -31 2 -17 11 -26 10 -48 -1 -21 -12 -28 -12 -31 -2 -6 15
-45 16 -61 0z m688 -120 c-1 -80 -18 -108 -55 -88 -21 11 -29 11 -52 -1 -20
-11 -27 -11 -30 -1 -6 15 -45 16 -60 1 -8 -8 -17 -7 -32 3 -17 11 -25 11 -42
-1 -18 -11 -26 -11 -46 0 -19 10 -28 10 -44 1 -15 -10 -23 -10 -38 0 -16 9
-25 9 -44 -1 -19 -10 -28 -10 -44 0 -42 25 -76 -13 -52 -58 11 -21 11 -27 2
-30 -7 -3 -13 -15 -13 -28 0 -13 6 -25 13 -28 9 -3 9 -10 -2 -30 -12 -23 -12
-31 0 -54 11 -20 11 -27 2 -30 -16 -6 -17 -50 -1 -55 9 -3 7 -14 -6 -42 -15
-33 -21 -37 -49 -34 l-32 3 -3 268 -2 267 315 0 315 0 0 -62z m0 -306 l0 -159
-230 -7 c-127 -4 -235 -4 -240 -1 -11 7 -14 308 -3 318 3 4 111 7 240 7 l233
0 0 -158z m148 -109 l-3 -268 -310 0 -310 0 -2 60 c-4 77 14 105 52 85 21 -11
29 -11 52 1 20 11 27 11 30 2 3 -7 15 -13 28 -13 13 0 25 6 28 13 3 9 10 9 30
-2 23 -12 31 -12 52 -1 20 10 28 11 37 2 15 -15 48 -16 48 -2 0 6 9 10 20 10
11 0 20 -4 20 -10 0 -14 33 -13 48 2 9 9 17 9 36 -2 45 -23 80 10 56 54 -9 19
-9 27 1 44 11 17 11 25 -1 48 -12 21 -12 28 -2 31 15 6 16 35 0 51 -9 9 -8 17
2 37 11 21 11 29 -1 52 -11 20 -11 27 -1 30 6 3 12 13 12 24 0 16 7 19 40 19
l40 0 -2 -267z"/>
<path d="M4944 1027 c3 -16 6 -33 6 -38 0 -5 9 -9 20 -9 12 0 20 7 20 18 0 9
3 26 6 37 4 17 0 20 -26 20 -30 1 -31 -1 -26 -28z"/>
<path d="M5094 1027 c3 -16 6 -33 6 -38 0 -5 8 -9 19 -9 13 0 20 10 25 31 9
45 9 45 -25 45 -29 0 -30 -2 -25 -29z"/>
<path d="M5250 1041 c1 -54 32 -83 44 -41 3 11 8 28 11 38 4 15 -1 18 -25 18
-21 0 -30 -5 -30 -15z"/>
<path d="M4960 944 c0 -8 5 -12 10 -9 6 3 10 10 10 16 0 5 -4 9 -10 9 -5 0
-10 -7 -10 -16z"/>
<path d="M5110 945 c0 -8 5 -15 10 -15 6 0 10 7 10 15 0 8 -4 15 -10 15 -5 0
-10 -7 -10 -15z"/>
<path d="M5270 938 c0 -19 2 -20 10 -8 13 19 13 30 0 30 -5 0 -10 -10 -10 -22z"/>
</g>
</svg>
